<mxfile host="app.diagrams.net" modified="2024-03-23T15:32:58.016Z" agent="Mozilla/5.0 (Windows NT 10.0; Win64; x64) AppleWebKit/537.36 (KHTML, like Gecko) Chrome/123.0.0.0 Safari/537.36" etag="gPfCNxMoRL1v0lhAnN8W" version="24.0.7" type="device">
  <diagram name="Page-1" id="1QW9d5h8IJgmGNjJU1nf">
    <mxGraphModel dx="472" dy="754" grid="1" gridSize="10" guides="1" tooltips="1" connect="1" arrows="1" fold="1" page="1" pageScale="1" pageWidth="850" pageHeight="1100" math="0" shadow="0">
      <root>
        <mxCell id="0" />
        <mxCell id="1" parent="0" />
        <mxCell id="5DKNPGP_5_Qy-LUGQ_C3-7" value="" style="endArrow=none;html=1;rounded=0;" edge="1" parent="1" source="5DKNPGP_5_Qy-LUGQ_C3-23" target="5DKNPGP_5_Qy-LUGQ_C3-6">
          <mxGeometry width="50" height="50" relative="1" as="geometry">
            <mxPoint x="60" y="405" as="sourcePoint" />
            <mxPoint x="670" y="400" as="targetPoint" />
          </mxGeometry>
        </mxCell>
        <mxCell id="5DKNPGP_5_Qy-LUGQ_C3-6" value="event title" style="ellipse;whiteSpace=wrap;html=1;" vertex="1" parent="1">
          <mxGeometry x="350" y="390" width="90" height="30" as="geometry" />
        </mxCell>
        <mxCell id="5DKNPGP_5_Qy-LUGQ_C3-9" value="discipline" style="ellipse;whiteSpace=wrap;html=1;" vertex="1" parent="1">
          <mxGeometry x="550" y="390" width="90" height="30" as="geometry" />
        </mxCell>
        <mxCell id="5DKNPGP_5_Qy-LUGQ_C3-10" value="" style="endArrow=none;html=1;rounded=0;" edge="1" parent="1" source="5DKNPGP_5_Qy-LUGQ_C3-6" target="5DKNPGP_5_Qy-LUGQ_C3-9">
          <mxGeometry width="50" height="50" relative="1" as="geometry">
            <mxPoint x="440" y="404" as="sourcePoint" />
            <mxPoint x="670" y="400" as="targetPoint" />
          </mxGeometry>
        </mxCell>
        <mxCell id="5DKNPGP_5_Qy-LUGQ_C3-8" value="game slug" style="ellipse;whiteSpace=wrap;html=1;" vertex="1" parent="1">
          <mxGeometry x="450" y="390" width="90" height="30" as="geometry" />
        </mxCell>
        <mxCell id="5DKNPGP_5_Qy-LUGQ_C3-14" value="" style="endArrow=none;html=1;rounded=0;" edge="1" parent="1" target="5DKNPGP_5_Qy-LUGQ_C3-13">
          <mxGeometry width="50" height="50" relative="1" as="geometry">
            <mxPoint x="315" y="420" as="sourcePoint" />
            <mxPoint x="320" y="80" as="targetPoint" />
          </mxGeometry>
        </mxCell>
        <mxCell id="5DKNPGP_5_Qy-LUGQ_C3-13" value="country name/code" style="ellipse;whiteSpace=wrap;html=1;" vertex="1" parent="1">
          <mxGeometry x="270" y="330" width="90" height="30" as="geometry" />
        </mxCell>
        <mxCell id="5DKNPGP_5_Qy-LUGQ_C3-16" value="" style="endArrow=none;html=1;rounded=0;" edge="1" parent="1" source="5DKNPGP_5_Qy-LUGQ_C3-13" target="5DKNPGP_5_Qy-LUGQ_C3-15">
          <mxGeometry width="50" height="50" relative="1" as="geometry">
            <mxPoint x="315" y="330" as="sourcePoint" />
            <mxPoint x="320" y="80" as="targetPoint" />
          </mxGeometry>
        </mxCell>
        <mxCell id="5DKNPGP_5_Qy-LUGQ_C3-15" value="region" style="ellipse;whiteSpace=wrap;html=1;" vertex="1" parent="1">
          <mxGeometry x="270" y="260" width="90" height="30" as="geometry" />
        </mxCell>
        <mxCell id="5DKNPGP_5_Qy-LUGQ_C3-20" value="" style="endArrow=none;html=1;rounded=0;" edge="1" parent="1" target="5DKNPGP_5_Qy-LUGQ_C3-19">
          <mxGeometry width="50" height="50" relative="1" as="geometry">
            <mxPoint x="315" y="410" as="sourcePoint" />
            <mxPoint x="320" y="710" as="targetPoint" />
          </mxGeometry>
        </mxCell>
        <mxCell id="5DKNPGP_5_Qy-LUGQ_C3-19" value="year" style="ellipse;whiteSpace=wrap;html=1;" vertex="1" parent="1">
          <mxGeometry x="270" y="480" width="90" height="30" as="geometry" />
        </mxCell>
        <mxCell id="5DKNPGP_5_Qy-LUGQ_C3-22" value="" style="endArrow=none;html=1;rounded=0;" edge="1" parent="1" source="5DKNPGP_5_Qy-LUGQ_C3-19" target="5DKNPGP_5_Qy-LUGQ_C3-21">
          <mxGeometry width="50" height="50" relative="1" as="geometry">
            <mxPoint x="315" y="470" as="sourcePoint" />
            <mxPoint x="315" y="710" as="targetPoint" />
          </mxGeometry>
        </mxCell>
        <mxCell id="5DKNPGP_5_Qy-LUGQ_C3-21" value="game season" style="ellipse;whiteSpace=wrap;html=1;" vertex="1" parent="1">
          <mxGeometry x="270" y="560" width="90" height="30" as="geometry" />
        </mxCell>
        <mxCell id="5DKNPGP_5_Qy-LUGQ_C3-24" value="" style="endArrow=none;html=1;rounded=0;" edge="1" parent="1" source="5DKNPGP_5_Qy-LUGQ_C3-25" target="5DKNPGP_5_Qy-LUGQ_C3-23">
          <mxGeometry width="50" height="50" relative="1" as="geometry">
            <mxPoint x="60" y="405" as="sourcePoint" />
            <mxPoint x="350" y="405" as="targetPoint" />
          </mxGeometry>
        </mxCell>
        <mxCell id="5DKNPGP_5_Qy-LUGQ_C3-23" value="full name" style="ellipse;whiteSpace=wrap;html=1;" vertex="1" parent="1">
          <mxGeometry x="190" y="390" width="90" height="30" as="geometry" />
        </mxCell>
        <mxCell id="5DKNPGP_5_Qy-LUGQ_C3-25" value="gender" style="ellipse;whiteSpace=wrap;html=1;" vertex="1" parent="1">
          <mxGeometry x="80" y="390" width="90" height="30" as="geometry" />
        </mxCell>
        <mxCell id="5DKNPGP_5_Qy-LUGQ_C3-27" value="Athlete" style="text;html=1;align=center;verticalAlign=middle;whiteSpace=wrap;rounded=0;" vertex="1" parent="1">
          <mxGeometry y="390" width="60" height="30" as="geometry" />
        </mxCell>
        <mxCell id="5DKNPGP_5_Qy-LUGQ_C3-28" value="Time" style="text;html=1;align=center;verticalAlign=middle;whiteSpace=wrap;rounded=0;" vertex="1" parent="1">
          <mxGeometry x="285" y="630" width="60" height="30" as="geometry" />
        </mxCell>
        <mxCell id="5DKNPGP_5_Qy-LUGQ_C3-29" value="Event" style="text;html=1;align=center;verticalAlign=middle;whiteSpace=wrap;rounded=0;" vertex="1" parent="1">
          <mxGeometry x="670" y="390" width="70" height="30" as="geometry" />
        </mxCell>
        <mxCell id="5DKNPGP_5_Qy-LUGQ_C3-30" value="" style="endArrow=classic;html=1;rounded=0;exitX=1;exitY=0.5;exitDx=0;exitDy=0;entryX=0;entryY=0.5;entryDx=0;entryDy=0;" edge="1" parent="1" source="5DKNPGP_5_Qy-LUGQ_C3-9" target="5DKNPGP_5_Qy-LUGQ_C3-29">
          <mxGeometry width="50" height="50" relative="1" as="geometry">
            <mxPoint x="740" y="405" as="sourcePoint" />
            <mxPoint x="450" y="360" as="targetPoint" />
          </mxGeometry>
        </mxCell>
        <mxCell id="5DKNPGP_5_Qy-LUGQ_C3-31" value="Country" style="text;html=1;align=center;verticalAlign=middle;whiteSpace=wrap;rounded=0;" vertex="1" parent="1">
          <mxGeometry x="285" y="180" width="60" height="30" as="geometry" />
        </mxCell>
        <mxCell id="5DKNPGP_5_Qy-LUGQ_C3-32" value="" style="endArrow=classic;html=1;rounded=0;exitX=0.5;exitY=0;exitDx=0;exitDy=0;" edge="1" parent="1" source="5DKNPGP_5_Qy-LUGQ_C3-15">
          <mxGeometry width="50" height="50" relative="1" as="geometry">
            <mxPoint x="315" y="190" as="sourcePoint" />
            <mxPoint x="315" y="220" as="targetPoint" />
          </mxGeometry>
        </mxCell>
        <mxCell id="5DKNPGP_5_Qy-LUGQ_C3-33" value="" style="endArrow=classic;html=1;rounded=0;exitX=0.5;exitY=1;exitDx=0;exitDy=0;entryX=0.5;entryY=0;entryDx=0;entryDy=0;" edge="1" parent="1" source="5DKNPGP_5_Qy-LUGQ_C3-21" target="5DKNPGP_5_Qy-LUGQ_C3-28">
          <mxGeometry width="50" height="50" relative="1" as="geometry">
            <mxPoint x="400" y="410" as="sourcePoint" />
            <mxPoint x="450" y="360" as="targetPoint" />
          </mxGeometry>
        </mxCell>
        <mxCell id="5DKNPGP_5_Qy-LUGQ_C3-34" value="" style="endArrow=classic;html=1;rounded=0;exitX=0;exitY=0.5;exitDx=0;exitDy=0;entryX=1;entryY=0.5;entryDx=0;entryDy=0;" edge="1" parent="1" source="5DKNPGP_5_Qy-LUGQ_C3-25" target="5DKNPGP_5_Qy-LUGQ_C3-27">
          <mxGeometry width="50" height="50" relative="1" as="geometry">
            <mxPoint x="400" y="410" as="sourcePoint" />
            <mxPoint x="450" y="360" as="targetPoint" />
          </mxGeometry>
        </mxCell>
      </root>
    </mxGraphModel>
  </diagram>
</mxfile>
